<?xml version="1.0" encoding="UTF-8" standalone="no"?> <!-- Created with Vectornator for iOS (http://vectornator.io/) --><!DOCTYPE svg PUBLIC "-//W3C//DTD SVG 1.1//EN" "http://www.w3.org/Graphics/SVG/1.1/DTD/svg11.dtd">
<svg style="fill-rule:nonzero;clip-rule:evenodd;stroke-linecap:round;stroke-linejoin:round;" xmlns:vectornator="http://vectornator.io" xmlns:xlink="http://www.w3.org/1999/xlink" xmlns="http://www.w3.org/2000/svg" xml:space="preserve" version="1.1" viewBox="0 0 1024 1024">
<metadata>
<vectornator:setting key="DimensionsVisible" value="1"/>
<vectornator:setting key="PencilOnly" value="1"/>
<vectornator:setting key="SnapToPoints" value="0"/>
<vectornator:setting key="OutlineMode" value="0"/>
<vectornator:setting key="CMYKEnabledKey" value="0"/>
<vectornator:setting key="RulersVisible" value="1"/>
<vectornator:setting key="SnapToEdges" value="1"/>
<vectornator:setting key="GuidesVisible" value="1"/>
<vectornator:setting key="DisplayWhiteBackground" value="0"/>
<vectornator:setting key="doHistoryDisabled" value="0"/>
<vectornator:setting key="SnapToGuides" value="1"/>
<vectornator:setting key="TimeLapseWatermarkDisabled" value="0"/>
<vectornator:setting key="Units" value="Pixels"/>
<vectornator:setting key="DynamicGuides" value="1"/>
<vectornator:setting key="IsolateActiveLayer" value="0"/>
<vectornator:setting key="SnapToGrid" value="0"/>
</metadata>
<defs/>
<g id="Layer 1" vectornator:layerName="Layer 1">
<path stroke="#ffffff" stroke-width="50" d="M499.343+69.5303L873.427+285.508L873.427+717.464L499.343+933.441L125.258+717.464L125.258+285.508L499.343+69.5303Z" fill="none" stroke-linecap="round" opacity="1" stroke-linejoin="round"/>
<path stroke="#ffffff" stroke-width="50" d="M287.988+507.937C287.988+403.445+339.068+318.737+402.078+318.737C465.087+318.737+516.167+403.445+516.167+507.937C516.167+612.43+465.087+697.138+402.078+697.138C339.068+697.138+287.988+612.43+287.988+507.937Z" fill="none" stroke-linecap="round" opacity="1" stroke-linejoin="round"/>
<path stroke="#ffffff" stroke-width="50" d="M214.174+318.737L214.459+697.138" fill="none" stroke-linecap="round" opacity="1" stroke-linejoin="round"/>
<path stroke="#ffffff" stroke-width="50" d="M581.212+507.937C581.212+403.445+632.291+318.737+695.301+318.737C758.311+318.737+809.39+403.445+809.39+507.937C809.39+612.43+758.311+697.138+695.301+697.138C632.291+697.138+581.212+612.43+581.212+507.937Z" fill="none" stroke-linecap="round" opacity="1" stroke-linejoin="round"/>
</g>
</svg>
